<svg width="165" height="139" viewBox="0 0 165 139" fill="none" xmlns="http://www.w3.org/2000/svg">
<rect width="165" height="139" rx="21" fill="#FA6400"/>
<circle cx="41" cy="61" r="8" stroke="white" stroke-width="4"/>
<line x1="50" y1="51" x2="50" y2="71" stroke="white" stroke-width="4"/>
<path d="M57 71V54.2013C57 53.2209 58.2642 52.826 58.8222 53.6321L68.6778 67.8679C69.2358 68.674 70.5 68.2791 70.5 67.2987V50" stroke="white" stroke-width="4"/>
<path d="M100.074 70.9999L78.5579 71.064C77.6847 71.0666 77.2279 70.0273 77.8201 69.3857L97.849 47.6869C98.4413 47.0453 97.9844 46.006 97.1113 46.0086L74.9998 46.0745" stroke="white" stroke-width="4"/>
<path d="M111.517 99H146.54C147.932 99 149.141 99.9577 149.46 101.313L155.107 125.313C155.55 127.196 154.122 129 152.187 129H106.223C104.306 129 102.881 127.226 103.294 125.354L108.588 101.354C108.891 99.979 110.109 99 111.517 99Z" fill="white" stroke="white" stroke-width="4"/>
<circle cx="121" cy="102.5" r="2.5" fill="#C4C4C4"/>
<circle cx="136" cy="102.5" r="2.5" fill="#C4C4C4"/>
<path d="M138.5 96.5C138.5 94.5958 138.241 92.7103 137.739 90.9511C137.236 89.1919 136.5 87.5934 135.571 86.247C134.642 84.9005 133.54 83.8324 132.327 83.1037C131.114 82.3751 129.813 82 128.5 82C127.187 82 125.886 82.3751 124.673 83.1037C123.46 83.8324 122.358 84.9005 121.429 86.247C120.5 87.5934 119.764 89.1919 119.261 90.9511C118.759 92.7103 118.5 94.5958 118.5 96.5L121.5 96.5C121.5 95.1671 121.681 93.8472 122.033 92.6158C122.385 91.3843 122.9 90.2654 123.55 89.3229C124.2 88.3804 124.972 87.6327 125.821 87.1226C126.67 86.6125 127.581 86.35 128.5 86.35C129.419 86.35 130.33 86.6125 131.179 87.1226C132.028 87.6327 132.8 88.3804 133.45 89.3229C134.1 90.2654 134.615 91.3843 134.967 92.6158C135.319 93.8472 135.5 95.1671 135.5 96.5H138.5Z" fill="#C4C4C4"/>
<path d="M95.3272 22.5496C96.1302 21.5713 95.8344 20.1011 94.6923 19.5554C84.7008 14.7814 73.1294 12.5178 61.4797 13.0857C48.9688 13.6956 37.041 17.5384 27.4824 24.0385C17.9238 30.5387 11.2488 39.3464 8.45702 49.1428C5.66525 58.9392 6.90692 69.1971 11.9961 78.3803C17.0852 87.5635 25.748 95.1779 36.6872 100.083C47.6264 104.989 60.2533 106.921 72.677 105.591C85.1008 104.261 96.6528 99.7399 105.603 92.7051C113.923 86.1661 119.579 77.7821 121.865 68.656C122.146 67.5335 121.352 66.4482 120.204 66.3066L112.717 65.3836C111.673 65.2547 110.713 65.96 110.452 66.9798C108.599 74.2205 104.091 80.8699 97.4826 86.0641C90.3223 91.6919 81.0806 95.3086 71.1416 96.3727C61.2026 97.4368 51.1011 95.8909 42.3498 91.9666C33.5984 88.0424 26.6682 81.9508 22.5969 74.6042C18.5255 67.2577 17.5322 59.0514 19.7656 51.2142C21.999 43.3771 27.339 36.3309 34.9859 31.1308C42.6328 25.9307 52.1751 22.8565 62.1838 22.3686C71.6187 21.9086 80.9894 23.7702 89.0496 27.6868C89.9041 28.102 90.9383 27.8969 91.5411 27.1626L95.3272 22.5496Z" fill="white"/>
<path d="M110 66.8C110 64.149 112.149 62 114.8 62H130V62C130 65.3137 127.314 68 124 68H111.2C110.537 68 110 67.4627 110 66.8V66.8Z" fill="white"/>
<path d="M129.5 63V82" stroke="white"/>
</svg>
