<svg width="163" height="149" viewBox="0 0 163 149" fill="none" xmlns="http://www.w3.org/2000/svg">
<ellipse cx="81.5" cy="74.5" rx="81.5" ry="74.5" fill="#FA6400"/>
<path d="M71.8167 69.7001C73.6416 71.178 73.9945 74.1613 72.1672 76.4178C70.3399 78.6743 67.3484 78.9494 65.5235 77.4716C63.6985 75.9938 63.3456 73.0104 65.1729 70.7539C67.0002 68.4974 69.9917 68.2223 71.8167 69.7001Z" stroke="white" stroke-width="4"/>
<line x1="69.8575" y1="64.8194" x2="77.314" y2="75.4684" stroke="white" stroke-width="4"/>
<path d="M79.403 86.3698L82.0509 77.1357C82.3091 76.2352 83.5526 76.1522 83.9282 77.0104L87.9884 86.2868C88.364 87.1449 89.6076 87.0619 89.8658 86.1615L92.5989 76.6298" stroke="white" stroke-width="4"/>
<path d="M113.866 81.6255L100.544 83.775C99.6718 83.9157 99.0586 82.9393 99.5643 82.2152L109.578 67.8764C110.083 67.1523 109.47 66.1759 108.598 66.3166L94.8847 68.5292" stroke="white" stroke-width="4"/>
<path d="M114.881 24.0541C115.566 23.1044 115.293 21.7699 114.271 21.1988C102.312 14.5172 88.3753 11.3367 74.3424 12.1152C59.5666 12.935 45.4794 18.1 34.1904 26.8367C22.9013 35.5735 15.018 47.4118 11.7208 60.579C8.42361 73.7462 9.89006 87.5337 15.9005 99.8767C21.911 112.22 32.1421 122.454 45.0616 129.047C57.9812 135.641 72.894 138.238 87.5669 136.45C102.24 134.662 115.883 128.586 126.454 119.131C136.489 110.154 143.242 98.5915 145.826 86.0214C146.053 84.9183 145.283 83.8712 144.168 83.7147L134.59 82.3707C133.517 82.2202 132.524 82.9521 132.299 84.0115C130.188 93.9537 124.813 103.094 116.863 110.204C108.406 117.769 97.4918 122.63 85.7535 124.06C74.0152 125.49 62.085 123.413 51.7493 118.138C41.4137 112.863 33.2288 104.676 28.4204 94.8014C23.6121 84.927 22.4389 73.897 25.0766 63.3632C27.7144 52.8295 34.0211 43.3588 43.0523 36.3694C52.0835 29.38 63.3533 25.248 75.174 24.5922C86.3668 23.9712 97.4833 26.4986 107.031 31.8113C107.94 32.3167 109.09 32.0834 109.698 31.2404L114.881 24.0541Z" fill="white"/>
<path d="M123 90.3654C123 84.6407 127.641 80 133.365 80H155V80C155 86.0751 150.075 91 144 91H123.635C123.284 91 123 90.7159 123 90.3654V90.3654Z" fill="white"/>
<path d="M56.9855 61.5H131.195C132.413 61.5 133.123 62.8743 132.419 63.8676L113.273 90.8676C112.992 91.2643 112.536 91.5 112.05 91.5H64.7582C64.0896 91.5 63.5017 91.0575 63.3167 90.415L55.544 63.415C55.268 62.4561 55.9877 61.5 56.9855 61.5Z" stroke="#2196F3" stroke-width="3"/>
<path d="M32 54H51.3932C51.8375 54 52.2285 54.2931 52.3531 54.7195L64.7898 97.2805C64.9144 97.7069 65.3054 98 65.7496 98H95" stroke="#2196F3" stroke-width="3"/>
<ellipse cx="70.5" cy="108" rx="5.5" ry="6" fill="#2196F3"/>
<circle cx="88" cy="108" r="6" fill="#2196F3"/>
<rect x="42" y="68" width="6" height="3" rx="1.5" fill="#2196F3"/>
<rect x="36" y="76" width="17" height="3" rx="1.5" fill="#2196F3"/>
<rect x="44" y="84" width="12" height="4" rx="2" fill="#2196F3"/>
</svg>
